PathFileType	4	(X/Y/Z)	Kaydara	
DataRate	CameraRate	NumFrames	NumMarkers	Units	OrigDataRate	OrigDataStartFrame	OrigNumFrames	
120.00	120.00	4	72	mm	120.00	168	268	
Frame#	Time	Hips			RightUpLeg			RightLeg			RightFoot			RightFoot_End			LeftUpLeg			LeftLeg			LeftFoot			LeftFoot_End			Spine			Spine1			Spine2			Spine3			Neck			Head			Head_End			RightShoulder			RightArm			RightForeArm			RightHand			RightHandThumb1			RightHandThumb2			RightHandThumb3			RightHandThumb3_End			RightInHandIndex			RightHandIndex1			RightHandIndex2			RightHandIndex3			RightHandIndex3_End			RightInHandMiddle			RightHandMiddle1			RightHandMiddle2			RightHandMiddle3			RightHandMiddle3_End			RightInHandRing			RightHandRing1			RightHandRing2			RightHandRing3			RightHandRing3_End			RightInHandPinky			RightHandPinky1			RightHandPinky2			RightHandPinky3			RightHandPinky3_End			LeftShoulder			LeftArm			LeftForeArm			LeftHand			LeftHandThumb1			LeftHandThumb2			LeftHandThumb3			LeftHandThumb3_End			LeftInHandIndex			LeftHandIndex1			LeftHandIndex2			LeftHandIndex3			LeftHandIndex3_End			LeftInHandMiddle			LeftHandMiddle1			LeftHandMiddle2			LeftHandMiddle3			LeftHandMiddle3_End			LeftInHandRing			LeftHandRing1			LeftHandRing2			LeftHandRing3			LeftHandRing3_End			LeftInHandPinky			LeftHandPinky1			LeftHandPinky2			LeftHandPinky3			LeftHandPinky3_End			
		X1	Y1	Z1	X2	Y2	Z2	X3	Y3	Z3	X4	Y4	Z4	X5	Y5	Z5	X6	Y6	Z6	X7	Y7	Z7	X8	Y8	Z8	X9	Y9	Z9	X10	Y10	Z10	X11	Y11	Z11	X12	Y12	Z12	X13	Y13	Z13	X14	Y14	Z14	X15	Y15	Z15	X16	Y16	Z16	X17	Y17	Z17	X18	Y18	Z18	X19	Y19	Z19	X20	Y20	Z20	X21	Y21	Z21	X22	Y22	Z22	X23	Y23	Z23	X24	Y24	Z24	X25	Y25	Z25	X26	Y26	Z26	X27	Y27	Z27	X28	Y28	Z28	X29	Y29	Z29	X30	Y30	Z30	X31	Y31	Z31	X32	Y32	Z32	X33	Y33	Z33	X34	Y34	Z34	X35	Y35	Z35	X36	Y36	Z36	X37	Y37	Z37	X38	Y38	Z38	X39	Y39	Z39	X40	Y40	Z40	X41	Y41	Z41	X42	Y42	Z42	X43	Y43	Z43	X44	Y44	Z44	X45	Y45	Z45	X46	Y46	Z46	X47	Y47	Z47	X48	Y48	Z48	X49	Y49	Z49	X50	Y50	Z50	X51	Y51	Z51	X52	Y52	Z52	X53	Y53	Z53	X54	Y54	Z54	X55	Y55	Z55	X56	Y56	Z56	X57	Y57	Z57	X58	Y58	Z58	X59	Y59	Z59	X60	Y60	Z60	X61	Y61	Z61	X62	Y62	Z62	X63	Y63	Z63	X64	Y64	Z64	X65	Y65	Z65	X66	Y66	Z66	X67	Y67	Z67	X68	Y68	Z68	X69	Y69	Z69	X70	Y70	Z70	X71	Y71	Z71	X72	Y72	Z72	

168	1.392	7446.805	859.65103	-201.189	7517.495833628629	854.6818875800941	-227.25201153969954	7403.291226860835	454.7005563675226	-247.45882474706687	7478.926799251784	58.327911466135234	-320.1223117544652	7431.6879006586705	-27.443729748819685	-167.15885691943646	7383.758285935385	835.8384763772212	-162.16361398367346	7258.447690011698	444.29165189944194	-84.64087178430691	7193.964870322658	78.02592846801197	104.02460631671273	7250.239157091922	39.023540855242935	280.6994156478561	7409.061069965011	985.6711662959941	-256.31804016720696	7361.774252254231	1058.4204106375846	-299.82524896405727	7307.1890066391115	1130.0055800433606	-345.75356438587306	7247.5662896324675	1191.5756725870967	-391.33801965182874	7182.843899348389	1257.2813844943594	-436.5952249401771	7144.417096466773	1330.7960840987937	-392.31393493802875	7116.08942827692	1415.210126321304	-260.7568544212373	7221.146408800859	1246.1465697216574	-433.928294803152	7295.139950181412	1276.2220634111964	-483.0596242130539	7433.658484945453	1103.6312735460301	-505.4685566376637	7565.580465672336	1144.1841601091633	-646.240937983562	7575.459242130848	1178.0713468014615	-646.0696668026419	7580.9767329663555	1202.1219957817116	-666.4370791453737	7586.382908977971	1215.5376131620544	-682.4164464428377	7592.227589055629	1223.8701187058584	-697.2737565141474	7583.160681839104	1169.661874733228	-651.0266476624975	7610.677620836208	1194.372518368484	-671.340110878056	7623.474046689246	1209.2704421605467	-693.2946478378103	7624.533525652838	1218.0687375497778	-708.1964448495943	7620.758855573858	1225.0382759190556	-721.3756230043367	7586.154253846215	1159.6266400979111	-655.574706903755	7614.6144860874065	1178.3012514391767	-677.8456668314409	7628.875735698056	1193.1506972400382	-702.3464147872434	7630.296846908579	1203.09026551931	-720.5859276714398	7626.236130705804	1210.3879359799407	-735.133240910389	7587.647226515986	1151.9126342606842	-658.2059352162319	7614.683937282922	1161.9714096743792	-680.2631564445229	7627.372744493274	1173.446488108299	-702.1397119391106	7628.880859898121	1182.2545273601565	-720.0101783065018	7625.127837531031	1188.7468066250945	-733.8195852945104	7587.938956723681	1142.255009153966	-661.1511497855408	7613.194721404793	1145.5566358986928	-682.9907371370892	7623.6404694951625	1152.411679630997	-701.2267224886928	7624.878368606539	1157.7073750157458	-714.6088618863548	7621.633149809197	1162.8087700927886	-727.0416529200081	7186.685297068107	1226.9689270425554	-407.1574746807778	7130.791670725358	1158.8755728801834	-369.77962933438926	7236.740448679711	1093.6327109978542	-531.8704221063562	7419.593025147857	1130.8392496468496	-501.46833292633266	7432.275808811864	1161.3401458059939	-505.55765192147817	7450.911562602268	1170.122728556097	-524.9439925358006	7462.066522579899	1173.8166419968807	-540.9816521336097	7469.806419041321	1174.8239026797337	-556.5219018863571	7425.871218962001	1157.3689890669434	-514.4451850010765	7433.18027573534	1180.6413003193334	-546.2093150927361	7443.786228265899	1186.6147106588528	-571.4236449965331	7454.327468396561	1184.8849116531742	-584.2748584424246	7465.715176879252	1179.7813683026725	-593.0065715445573	7420.9209628413355	1149.4849147424536	-520.3876730648418	7425.37082743178	1167.9224445696532	-554.5828592238754	7436.274040883718	1173.3120851543795	-582.7816595496955	7448.670163340318	1170.683576272716	-598.6148518056531	7460.974090654606	1164.8360911374418	-608.3287073382387	7417.170583595092	1143.4135317923774	-523.7668003585454	7417.708363734386	1154.9377324214854	-557.3204771258338	7426.520571959186	1158.451798566897	-582.5449513357462	7438.110624562021	1155.28783895657	-598.1605347540637	7449.505512488781	1149.491865973216	-607.4566430578669	7413.160243417718	1135.0123339577594	-526.8094859258134	7410.96032449158	1140.7211476188406	-559.4416900856833	7416.936805821306	1141.6376449754548	-580.5025447645273	7424.868203528598	1138.411986397695	-592.3096098714216	7434.661551070904	1132.7494625076993	-600.784434395608
169	1.4	7446.805	859.65103	-201.189	7516.555687148829	854.2392546828104	-227.654711432413	7403.248035647107	454.15395014679063	-247.9571892876886	7479.618995644087	58.725342615615745	-322.3150033798637	7433.385018223644	-27.43379392068294	-169.7652633487067	7384.674897264111	836.2838204012592	-161.74472321419228	7259.336825127457	444.82247429923854	-83.87922240971174	7194.563224041004	78.15490099736058	103.6767329912337	7251.075686695522	38.65089462717438	280.107024827954	7409.220535834299	985.6867010606031	-256.3630420033734	7361.981130997648	1058.4953567798968	-299.79905849479866	7307.43864860719	1130.1520540083443	-345.6242607078081	7247.855806744737	1191.8292100268745	-391.0581690926304	7183.170496407883	1257.638951284423	-436.13831604674465	7144.53620374216	1331.1125601451715	-392.048998498878	7116.334011849752	1415.7339994084625	-260.66407887355086	7221.164471591594	1246.20002122946	-433.53276604640706	7293.932774280418	1275.2204497674484	-482.36392845373734	7430.91909057739	1103.2657886987317	-502.73130193292457	7560.556625084177	1143.0231305050727	-641.48707429368	7570.276246524154	1176.7288474918323	-641.2726199252616	7575.7104249316735	1200.6550975648654	-661.327024726451	7581.0424828556515	1213.9911145871374	-677.059375783304	7586.811601326883	1222.2632757094032	-691.6859180963932	7577.888906584271	1168.3212897001636	-646.137987737527	7605.038530557733	1192.812360494558	-666.066523672282	7617.667293117207	1207.5929547958408	-687.6653663322302	7618.712429534226	1216.3490875666555	-702.3513450043754	7614.9865241292755	1223.3044907251724	-715.3554766959942	7580.855656182935	1158.3145068910849	-650.6162923749888	7608.943087031231	1176.7903329780006	-672.4741005576657	7623.019144806856	1191.5162596682374	-696.5786502011958	7624.4218785984385	1201.4071249249714	-714.5539160464774	7620.413997941899	1208.6903812381317	-728.9078153004482	7582.337980711585	1150.6258475131685	-653.2086871201179	7609.028209030167	1160.5274270660345	-674.863761133274	7621.55391439168	1171.8997733914684	-696.3873895361601	7623.043407134692	1180.6634516338095	-713.9989331276016	7619.3396389148065	1187.1434181192483	-727.6245698767489	7582.636519904036	1141.0066162879234	-656.1153694754726	7607.574977005796	1144.186461761878	-677.5643288595912	7617.889004689269	1150.9676172485074	-695.507596848345	7619.112781237927	1156.2350071680796	-708.6959880655844	7615.910883369292	1161.3278269047921	-720.9631749996175	7187.31797629849	1227.559948530202	-406.8001545489468	7132.495726195084	1160.619707108176	-369.24031643531765	7236.966834174024	1094.2475862014246	-528.8135365047573	7417.076720704481	1129.9222780084851	-498.57978307955693	7429.589380031962	1160.2241860569695	-502.5308946237883	7448.020307748579	1168.8390474200098	-521.6668256136388	7459.068360482069	1172.4142102470435	-537.5110577118667	7466.749702267236	1173.3208060424731	-552.8737651995363	7423.31056140283	1156.220243084454	-511.3396232948414	7430.626834432269	1179.1637662008054	-542.6922070862738	7441.166850322681	1184.9486542701443	-567.6087254817703	7451.598480198006	1183.1508626121636	-580.3159695614237	7462.849179698556	1178.0242365324393	-588.9562964239068	7418.453871188558	1148.3442250679416	-517.2441011665138	7422.96140438776	1166.4654110156555	-551.0173209878853	7433.804901657955	1171.6515160917638	-578.8874549928483	7446.074653785921	1168.9420227638743	-594.5451806881936	7458.2315222525585	1163.069789553125	-604.1581813309969	7414.770367664587	1142.2864368754736	-520.6067858194701	7415.4206790416565	1153.5375060236086	-553.7677584483346	7424.193241091294	1156.8769017872482	-578.7026555331829	7435.667985894726	1153.636277170864	-594.1473358089684	7446.927722505356	1147.817722402996	-603.3478324778516	7410.829368924091	1133.914270959902	-523.6431558769813	7408.778620358625	1139.388727203985	-555.9108441987072	7414.742206347446	1140.170811781454	-576.736676947658	7422.598617313655	1136.8918730916191	-588.4175660416925	7432.277491051943	1131.210864531481	-596.8068202429865
170	1.408	7446.805	859.65103	-201.189	7515.603522728793	853.7915298394962	-228.06207832212644	7403.205289985419	453.6016887787657	-248.46743252907345	7480.310895878027	59.12851441084682	-324.5452819110624	7435.093167762587	-27.423779931069326	-172.41649387992828	7385.603369257458	836.7343382742534	-161.3209387472678	7260.238857977768	445.3586255470065	-83.11139024640721	7195.171922738495	78.2829475451687	103.31972362550823	7251.921950201346	38.270621974020834	279.5031844270344	7409.381413692783	985.7021934025229	-256.4087346620643	7362.1896410814325	1058.5705260368889	-299.77282838684926	7307.690139190435	1130.2991654986465	-345.49376088848385	7248.147132174799	1192.0837404229378	-390.77523628928157	7183.498901612022	1257.9978916926357	-435.6760503525839	7144.654903084167	1331.4306124728616	-391.78172184114976	7116.581946237468	1416.2631905797434	-260.57174521022625	7221.180301536507	1246.2508944049987	-433.132948671057	7292.706541069937	1274.200250865116	-481.66136472188583	7428.13378203542	1102.887370878303	-499.960238071974	7555.449189449882	1141.8163064416235	-636.660197839498	7565.00896774654	1175.333981181153	-636.4047629069939	7570.35813153766	1199.1296862993704	-656.1423046621915	7575.614272636191	1212.3819847055	-671.6240312620519	7581.305805280153	1220.5905066514838	-686.0160079936468	7572.530457464317	1166.9282091605587	-641.1757398455698	7599.306344534746	1191.190523920398	-660.7136171270342	7611.763663451014	1205.84796259938	-681.9510161089638	7612.793483009081	1214.5592012265774	-696.4178322868336	7609.116463947272	1221.4988090153365	-709.2443048583011	7575.468972736186	1156.950664842534	-645.5818945956676	7603.176574579338	1175.21917401096	-667.019665716917	7617.063150797801	1189.8153584130994	-690.7214436719374	7618.446252711543	1199.6542896079868	-708.4282840816695	7614.491302331757	1206.921346588639	-722.5858407248197	7576.939803199731	1149.2881355426405	-648.1339204656904	7603.2764806760315	1159.0255343776691	-669.3793752056888	7615.635188214583	1170.2898752266365	-690.5440515855383	7617.104764878418	1179.006155938905	-707.8924850514466	7613.4503003606205	1185.4721690673398	-721.3315235388699	7577.244459187588	1139.70851862031	-651.0003827989141	7601.858655610803	1142.760903960809	-672.0508544292776	7612.0376290570475	1149.464214220782	-689.6961519257709	7613.2462360622785	1154.7012123703066	-702.6875333693275	7610.087643421479	1159.784077461411	-714.7864917194775	7187.956783696976	1228.1560834937177	-406.43854508556495	7134.222130808724	1162.3839940987946	-368.692652182292	7237.198523970182	1094.8619218884317	-525.7108234204157	7414.525761232505	1128.9715099163373	-495.6483145751706	7426.862437675563	1159.0699027080611	-499.4613515449513	7445.084253772448	1167.5142662187682	-518.3443581127701	7456.023358249191	1170.9686092328575	-533.992841262724	7463.6452509442815	1171.7726990787403	-549.1755834500049	7420.712305318967	1155.0319608925017	-508.18931324398113	7428.034489673409	1177.6387672682054	-539.1251405780525	7438.507283813968	1183.2312763113127	-563.7398528295525	7448.827630283517	1181.3647316035024	-576.3013103234277	7459.939346261717	1176.2154978558679	-584.8491962369786	7415.951774520803	1147.163985088521	-514.0543940345266	7420.51710647564	1164.9610857358289	-547.3998156236808	7431.299831224142	1169.939472747139	-574.93675780764	7443.441360446771	1167.1480900310364	-590.4167446103291	7455.449090268305	1161.2516346010766	-599.9276974664633	7412.337022068738	1141.119964692865	-517.3997881462519	7413.101637745541	1152.0910581625858	-550.162091076111	7421.833986213316	1155.252176931857	-574.8033055565063	7433.1918238826465	1151.9340350935267	-590.0748053269012	7444.314542552187	1146.0934027768885	-599.178528212961	7408.467487318341	1132.7774120917152	-520.429024407583	7406.568876148481	1138.0115244746619	-552.3262157446111	7412.5196558276975	1138.656398939895	-572.9135138350381	7420.300176346677	1135.3236024069668	-584.4664568550727	7429.863074031693	1129.6245811003034	-592.7690485618818
171	1.417	7446.805	859.65103	-201.189	7514.639472392543	853.3388287875197	-228.47395943214502	7403.1630645610785	453.04388670197756	-248.98933231387437	7481.002373049725	59.53742464718502	-326.81266958603146	7436.812115883711	-27.413654703581877	-175.11205550542195	7386.54356972061	837.1899100698405	-160.892420769353	7261.153654496014	445.8999783839716	-82.33757280658868	7195.790858806264	78.41009022955899	102.95375258774413	7252.777821593448	37.8828798071466	278.88811544139435	7409.543696465178	985.7176545724365	-256.4550952838141	7362.399788134571	1058.6459448457424	-299.7465318788634	7307.943505902311	1130.44696613126	-345.362040280802	7248.440315603069	1192.3393358655842	-390.4892115397682	7183.829191344361	1258.35830276783	-435.2084363903028	7144.773360165345	1331.7503735591567	-391.5120771336138	7116.833386337962	1416.7978077918049	-260.47981024847167	7221.194016106124	1246.2993566321754	-432.728803542025	7291.461605079782	1273.1619958171082	-480.9517991502089	7425.303572607928	1102.496663350439	-497.1556685998395	7550.259802448716	1140.5649444899225	-631.7610212241365	7559.659122908909	1173.8881293968539	-631.4667814334571	7564.921645404794	1197.5472225749775	-650.8836774093786	7570.100124832876	1210.7117338623761	-666.1112330214487	7575.712093475731	1218.8533588192727	-680.2649071897127	7567.087064614481	1165.4840121775258	-636.1406199050423	7593.482922961091	1189.5085332268745	-655.2821823248164	7605.76509985415	1204.0370642676592	-676.1524766519963	7606.7786633571295	1212.700701429316	-690.3968461533195	7603.150670685869	1219.6228589674142	-703.0430999682615	7569.995932265947	1155.536472235252	-640.4722585229599	7597.316803605521	1173.589263522459	-661.4831962759348	7611.009697375856	1188.0495600861007	-684.7757292626827	7612.37195502465	1197.8333538216034	-702.2100399380013	7608.470049618039	1205.0824313021888	-716.1683842061886	7571.4544185710165	1147.9008385075308	-642.98239852834	7597.430586569327	1157.4671739587059	-663.8108567910393	7609.61847690873	1168.6183000947067	-684.610647036969	7611.066884218055	1177.284171545109	-701.691856399994	7607.46179152189	1183.734594568693	-714.9415248475918	7571.764489637362	1138.362029077471	-645.8069741689313	7596.047567527142	1141.2813533151996	-666.4511973760269	7606.088212471843	1147.9029067690428	-683.7933491438671	7607.280631376102	1153.1074420452014	-696.5845152381232	7604.165344214553	1158.1789749207048	-708.5126717823995	7188.601729053413	1228.7573384351156	-406.0726814921505	7135.970698297202	1164.168153134426	-368.13691642229355	7237.43580189899	1095.4759912934483	-522.5629736691769	7411.940929414664	1127.9880017952225	-492.67440876592616	7424.0958588367	1157.878475663458	-496.3495308206029	7442.1043733475335	1166.1496512969757	-514.9771142071567	7452.932543125392	1169.4811642905343	-530.4275423480526	7460.494127551444	1170.1809552722184	-545.4279126369574	7418.077290779392	1153.8053350230425	-504.9947836709247	7425.404136457502	1176.0676752523827	-535.5087191326088	7435.80847639652	1181.4640431979003	-559.8176660257295	7446.015912474817	1179.5280145068768	-572.2315233921009	7456.98671765843	1174.356652708015	-580.6859043182262	7413.415479067026	1145.9453763933188	-510.81908857572625	7418.038775193002	1163.4108191940895	-543.7309573168998	7428.75972391496	1168.1774068416246	-570.930221634976	7440.771231132392	1165.3032643528381	-586.2302020356545	7452.62779315212	1159.3831170630824	-595.6379041877915	7409.871327512787	1139.9152848622994	-514.1463482609978	7410.752029376468	1150.5997003827868	-546.5040892911385	7419.443638126261	1153.5790214231995	-570.8475507742438	7430.6830183706425	1150.1825422175536	-585.9435976984795	7441.666898886138	1144.3203402234622	-594.949375407477	7406.0753499827115	1131.602905361592	-517.1676332405852	7404.331832559934	1136.5908054653323	-548.6884149572275	7410.269920513451	1137.09573692184	-569.0336945227408	7417.973679026097	1133.7085261119132	-580.4569254414068	7427.419137435397	1127.9919659970355	-588.6717545047075
